<?xml version="1.0" standalone="no"?>
<!DOCTYPE svg PUBLIC "-//W3C//DTD SVG 20010904//EN"
 "http://www.w3.org/TR/2001/REC-SVG-20010904/DTD/svg10.dtd">
<svg version="1.0" xmlns="http://www.w3.org/2000/svg"
 width="168.000000pt" height="181.000000pt" viewBox="0 0 168.000000 181.000000"
 preserveAspectRatio="xMidYMid meet">

<g transform="translate(0.000000,181.000000) scale(0.100000,-0.100000)"
fill="#000000" stroke="none">
<path d="M795 1729 c-195 -28 -371 -124 -491 -268 -66 -78 -137 -219 -160
-316 -24 -100 -22 -267 5 -368 38 -145 153 -325 253 -397 53 -39 41 -38 -36 3
-134 70 -252 231 -282 380 -11 58 -12 60 -13 20 -2 -63 24 -180 55 -253 147
-346 522 -533 891 -445 202 48 398 207 498 404 34 68 75 229 74 290 -1 45 -1
45 -16 -24 -32 -152 -94 -266 -208 -380 -93 -93 -197 -156 -319 -194 -114 -35
-305 -36 -419 -3 -80 23 -210 83 -222 103 -4 6 6 4 21 -4 63 -32 238 -68 359
-73 86 -4 116 -3 105 5 -8 6 -27 11 -42 11 -49 0 -182 49 -262 96 -158 92
-278 245 -340 429 -27 82 -30 102 -30 225 1 120 4 144 28 220 68 208 204 368
390 459 78 38 181 71 224 71 12 0 24 5 27 10 7 11 -5 11 -90 -1z"/>
<path d="M1185 1315 c-61 -41 -146 -104 -190 -140 -71 -59 -83 -74 -101 -126
l-21 -60 33 -33 c27 -27 34 -42 34 -73 0 -55 -20 -77 -97 -108 -38 -15 -74
-31 -80 -37 -10 -8 -13 -56 -13 -179 l0 -169 26 -6 c26 -7 162 1 171 10 3 2
-2 71 -11 153 l-15 148 25 95 26 95 106 107 c100 101 112 110 219 160 62 29
113 59 113 66 0 32 -88 172 -109 172 -3 0 -56 -34 -116 -75z"/>
<path d="M906 1320 c-65 -46 -74 -50 -130 -51 -34 0 -78 -6 -99 -12 -34 -11
-41 -18 -55 -61 -21 -61 -57 -90 -114 -91 -37 -1 -43 -4 -50 -31 -13 -43 1
-185 19 -206 23 -26 41 -23 111 19 59 35 62 39 62 75 0 22 -5 48 -11 59 -10
19 -10 19 -39 -1 -37 -26 -40 -25 -39 8 1 18 3 21 6 9 4 -17 7 -17 27 -3 28
17 95 14 107 -5 14 -23 10 -48 -11 -66 -11 -10 -20 -23 -20 -29 0 -7 -8 -15
-17 -19 -15 -6 -11 -10 17 -20 92 -33 93 -32 139 39 42 64 75 148 64 160 -4 3
-13 6 -21 6 -8 0 -30 7 -49 16 -43 21 -28 34 38 34 40 0 55 7 125 60 43 33 78
66 76 73 -8 38 -37 87 -51 87 -9 -1 -47 -23 -85 -50z"/>
<path d="M1030 1359 c0 -6 5 -20 11 -31 11 -20 12 -21 25 -4 7 10 10 24 7 32
-6 16 -43 19 -43 3z"/>
<path d="M1360 1361 c0 -5 10 -27 23 -49 18 -33 26 -38 40 -31 20 11 23 59 5
77 -14 14 -68 16 -68 3z"/>
<path d="M429 1301 c-41 -42 -41 -106 0 -150 24 -26 37 -31 74 -31 77 0 125
62 106 135 -21 77 -123 103 -180 46z"/>
<path d="M661 1000 c12 -33 24 -38 33 -15 8 23 -4 45 -25 45 -16 0 -17 -4 -8
-30z"/>
<path d="M878 921 c6 -43 -22 -87 -68 -107 -43 -19 -55 -40 -17 -29 12 4 42
16 67 28 40 20 45 26 48 59 3 37 -11 78 -27 78 -4 0 -6 -13 -3 -29z"/>
<path d="M818 903 c-31 -48 -40 -73 -27 -73 22 0 59 50 59 80 0 16 -2 30 -4
30 -2 0 -14 -17 -28 -37z"/>
<path d="M672 804 c-88 -23 -181 -79 -164 -96 7 -7 22 -2 44 15 31 23 120 59
181 72 30 6 38 25 10 24 -10 0 -42 -7 -71 -15z"/>
<path d="M669 711 c-58 -56 -40 -74 19 -19 54 48 60 58 38 58 -8 0 -34 -18
-57 -39z"/>
<path d="M820 355 c7 -8 23 -15 35 -15 12 0 28 7 35 15 11 13 6 15 -35 15 -41
0 -46 -2 -35 -15z"/>
</g>
</svg>
